<svg width="14" height="14" viewBox="0 0 14 14" fill="none" xmlns="http://www.w3.org/2000/svg">
<mask id="mask0_91_73" style="mask-type:alpha" maskUnits="userSpaceOnUse" x="0" y="0" width="14" height="14">
<rect y="14" width="14" height="14" transform="rotate(-90 0 14)" fill="#D9D9D9"/>
</mask>
<g mask="url(#mask0_91_73)">
<path d="M7.00013 7.70052L9.27513 5.42552C9.38207 5.31858 9.51819 5.2651 9.68346 5.2651C9.84874 5.2651 9.98485 5.31858 10.0918 5.42552C10.1987 5.53247 10.2522 5.66858 10.2522 5.83385C10.2522 5.99913 10.1987 6.13524 10.0918 6.24219L7.40846 8.92552C7.35013 8.98385 7.28694 9.02517 7.21888 9.04948C7.15082 9.07378 7.07791 9.08594 7.00013 9.08594C6.92235 9.08594 6.84944 9.07378 6.78138 9.04948C6.71332 9.02517 6.65013 8.98385 6.5918 8.92552L3.90846 6.24219C3.80152 6.13524 3.74805 5.99913 3.74805 5.83385C3.74805 5.66858 3.80152 5.53247 3.90846 5.42552C4.01541 5.31858 4.15152 5.2651 4.3168 5.2651C4.48207 5.2651 4.61819 5.31858 4.72513 5.42552L7.00013 7.70052Z" fill="#353535"/>
</g>
</svg>
