<svg width="25" height="24" viewBox="0 0 25 24" fill="none" xmlns="http://www.w3.org/2000/svg">
<mask id="mask0_91_485" style="mask-type:alpha" maskUnits="userSpaceOnUse" x="0" y="0" width="25" height="24">
<rect x="0.699219" width="24" height="24" fill="#D9D9D9"/>
</mask>
<g mask="url(#mask0_91_485)">
<path d="M5.69922 19.0003H15.6992C15.9826 19.0003 16.2201 19.0961 16.4117 19.2878C16.6034 19.4794 16.6992 19.7169 16.6992 20.0003C16.6992 20.2836 16.6034 20.5211 16.4117 20.7128C16.2201 20.9044 15.9826 21.0003 15.6992 21.0003H5.69922C5.41589 21.0003 5.17839 20.9044 4.98672 20.7128C4.79505 20.5211 4.69922 20.2836 4.69922 20.0003C4.69922 19.7169 4.79505 19.4794 4.98672 19.2878C5.17839 19.0961 5.41589 19.0003 5.69922 19.0003ZM8.92422 14.7253L6.09922 11.9003C5.71589 11.5169 5.52005 11.0461 5.51172 10.4878C5.50339 9.92943 5.69089 9.4586 6.07422 9.07527L6.79922 8.35027L12.4992 14.0003L11.7742 14.7253C11.3909 15.1086 10.9159 15.3003 10.3492 15.3003C9.78255 15.3003 9.30755 15.1086 8.92422 14.7253ZM16.6992 9.80027L11.0492 4.10027L11.7742 3.37527C12.1576 2.99193 12.6284 2.80443 13.1867 2.81277C13.7451 2.8211 14.2159 3.01693 14.5992 3.40027L17.4242 6.22527C17.8076 6.6086 17.9992 7.0836 17.9992 7.65027C17.9992 8.21693 17.8076 8.69193 17.4242 9.07527L16.6992 9.80027ZM20.5992 19.3003L8.24922 6.95027L9.64922 5.55027L21.9992 17.9003C22.1826 18.0836 22.2742 18.3169 22.2742 18.6003C22.2742 18.8836 22.1826 19.1169 21.9992 19.3003C21.8159 19.4836 21.5826 19.5753 21.2992 19.5753C21.0159 19.5753 20.7826 19.4836 20.5992 19.3003Z" fill="#9D9D9D"/>
</g>
</svg>
