<svg width="16" height="19" viewBox="0 0 16 19" fill="none" xmlns="http://www.w3.org/2000/svg">
<path d="M5.825 18.7008C4.10833 18.2174 2.70833 17.2716 1.625 15.8633C0.541667 14.4549 0 12.8341 0 11.0008C0 10.0508 0.158333 9.14662 0.475 8.28828C0.791667 7.42995 1.24167 6.64245 1.825 5.92578C2.00833 5.72578 2.23333 5.62161 2.5 5.61328C2.76667 5.60495 3.00833 5.70912 3.225 5.92578C3.40833 6.10912 3.50417 6.33412 3.5125 6.60078C3.52083 6.86745 3.43333 7.11745 3.25 7.35078C2.85 7.86745 2.54167 8.43412 2.325 9.05078C2.10833 9.66745 2 10.3174 2 11.0008C2 12.3508 2.39583 13.5549 3.1875 14.6133C3.97917 15.6716 5 16.3924 6.25 16.7758C6.46667 16.8424 6.64583 16.9675 6.7875 17.1508C6.92917 17.3341 7 17.5341 7 17.7508C7 18.0841 6.88333 18.3466 6.65 18.5383C6.41667 18.7299 6.14167 18.7841 5.825 18.7008ZM10.175 18.7008C9.85833 18.7841 9.58333 18.7258 9.35 18.5258C9.11667 18.3258 9 18.0591 9 17.7258C9 17.5258 9.07083 17.3341 9.2125 17.1508C9.35417 16.9675 9.53333 16.8424 9.75 16.7758C11 16.3758 12.0208 15.6508 12.8125 14.6008C13.6042 13.5508 14 12.3508 14 11.0008C14 9.33412 13.4167 7.91745 12.25 6.75078C11.0833 5.58412 9.66667 5.00078 8 5.00078H7.925L8.325 5.40078C8.50833 5.58412 8.6 5.81745 8.6 6.10078C8.6 6.38412 8.50833 6.61745 8.325 6.80078C8.14167 6.98412 7.90833 7.07578 7.625 7.07578C7.34167 7.07578 7.10833 6.98412 6.925 6.80078L4.825 4.70078C4.725 4.60078 4.65417 4.49245 4.6125 4.37578C4.57083 4.25911 4.55 4.13411 4.55 4.00078C4.55 3.86745 4.57083 3.74245 4.6125 3.62578C4.65417 3.50911 4.725 3.40078 4.825 3.30078L6.925 1.20078C7.10833 1.01745 7.34167 0.925781 7.625 0.925781C7.90833 0.925781 8.14167 1.01745 8.325 1.20078C8.50833 1.38411 8.6 1.61745 8.6 1.90078C8.6 2.18411 8.50833 2.41745 8.325 2.60078L7.925 3.00078H8C10.2333 3.00078 12.125 3.77578 13.675 5.32578C15.225 6.87578 16 8.76745 16 11.0008C16 12.8174 15.4583 14.4341 14.375 15.8508C13.2917 17.2674 11.8917 18.2174 10.175 18.7008Z" fill="#B8B8B8"/>
</svg>
