<svg width="25" height="24" viewBox="0 0 25 24" fill="none" xmlns="http://www.w3.org/2000/svg">
<mask id="mask0_91_499" style="mask-type:alpha" maskUnits="userSpaceOnUse" x="0" y="0" width="25" height="24">
<rect x="0.0996094" width="24" height="24" fill="#D9D9D9"/>
</mask>
<g mask="url(#mask0_91_499)">
<path d="M4.09961 21C3.54961 21 3.07878 20.8042 2.68711 20.4125C2.29544 20.0208 2.09961 19.55 2.09961 19V8C2.09961 7.45 2.29544 6.97917 2.68711 6.5875C3.07878 6.19583 3.54961 6 4.09961 6H8.09961V4C8.09961 3.45 8.29544 2.97917 8.68711 2.5875C9.07878 2.19583 9.54961 2 10.0996 2H14.0996C14.6496 2 15.1204 2.19583 15.5121 2.5875C15.9038 2.97917 16.0996 3.45 16.0996 4V6H20.0996C20.6496 6 21.1204 6.19583 21.5121 6.5875C21.9038 6.97917 22.0996 7.45 22.0996 8V19C22.0996 19.55 21.9038 20.0208 21.5121 20.4125C21.1204 20.8042 20.6496 21 20.0996 21H4.09961ZM4.09961 19H20.0996V8H4.09961V19ZM10.0996 6H14.0996V4H10.0996V6Z" fill="#B77DFF"/>
</g>
</svg>
