<svg width="361" height="220" viewBox="0 0 361 220" fill="none" xmlns="http://www.w3.org/2000/svg">
<g clip-path="url(#clip0_78_2440)">
<path d="M15.2518 200.869C16.7714 201.403 18.4029 201.537 19.9892 201.258C21.5756 200.978 23.0632 200.294 24.3088 199.272C27.481 196.608 28.4758 192.219 29.2848 188.155L31.6785 176.133L26.6672 179.586C23.0632 182.069 19.3782 184.632 16.883 188.229C14.3878 191.825 13.2992 196.735 15.3034 200.627" fill="#E6E6E6"/>
<path d="M16.0263 216.26C15.3956 211.661 14.7466 207.003 15.1901 202.356C15.5831 198.228 16.8416 194.197 19.4037 190.89C20.7636 189.139 22.4184 187.638 24.2937 186.456C24.7826 186.147 25.2327 186.923 24.7459 187.23C21.5011 189.282 18.9913 192.312 17.5784 195.884C16.0179 199.855 15.7674 204.185 16.0362 208.403C16.1986 210.955 16.5439 213.489 16.8906 216.021C16.918 216.135 16.9009 216.256 16.8428 216.358C16.7847 216.461 16.6899 216.537 16.5776 216.572C16.4631 216.603 16.341 216.588 16.2378 216.529C16.1347 216.47 16.0588 216.373 16.0266 216.259L16.0263 216.26Z" fill="#F2F2F2"/>
<path d="M20.5664 208.882C21.218 209.874 22.1138 210.68 23.1675 211.225C24.2212 211.769 25.3973 212.033 26.5823 211.99C29.6285 211.846 32.167 209.719 34.4519 207.699L41.2118 201.727L36.7381 201.512C33.5208 201.358 30.2204 201.214 27.156 202.208C24.0916 203.202 21.2655 205.59 20.7053 208.764" fill="#E6E6E6"/>
<path d="M14.2435 218.903C17.2801 213.527 20.8021 207.551 27.0957 205.641C28.8455 205.112 30.6803 204.922 32.5012 205.083C33.0752 205.132 32.9318 206.017 32.3591 205.968C29.3066 205.714 26.2601 206.521 23.7324 208.252C21.2999 209.909 19.4059 212.212 17.8031 214.655C16.8211 216.151 15.9416 217.711 15.0621 219.268C14.7811 219.766 13.9592 219.407 14.2435 218.903Z" fill="#F2F2F2"/>
<path d="M319.019 6.89062H67.8818V126.142H319.019V6.89062Z" fill="#E6E6E6"/>
<path d="M311.839 17.1152H75.0635V116.61H311.839V17.1152Z" fill="white"/>
<path d="M318.913 0H67.7754V10.6764H318.913V0Z" fill="#B77DFF"/>
<path d="M75.7031 6.91666C76.7952 6.91666 77.6805 6.0307 77.6805 4.93782C77.6805 3.84494 76.7952 2.95898 75.7031 2.95898C74.6109 2.95898 73.7256 3.84494 73.7256 4.93782C73.7256 6.0307 74.6109 6.91666 75.7031 6.91666Z" fill="white"/>
<path d="M83.2089 6.91666C84.301 6.91666 85.1864 6.0307 85.1864 4.93782C85.1864 3.84494 84.301 2.95898 83.2089 2.95898C82.1168 2.95898 81.2314 3.84494 81.2314 4.93782C81.2314 6.0307 82.1168 6.91666 83.2089 6.91666Z" fill="white"/>
<path d="M90.7158 6.91666C91.8079 6.91666 92.6932 6.0307 92.6932 4.93782C92.6932 3.84494 91.8079 2.95898 90.7158 2.95898C89.6236 2.95898 88.7383 3.84494 88.7383 4.93782C88.7383 6.0307 89.6236 6.91666 90.7158 6.91666Z" fill="white"/>
<path d="M130.985 93.3324H250.654V72.8074C250.636 70.6431 250.186 68.5043 249.331 66.5164C248.475 64.5285 247.232 62.7317 245.673 61.2312L245.64 61.1995C243.503 59.0534 236.36 53.6069 228.969 54.0687C225.065 54.3119 221.723 56.1946 219.035 59.6647C210.669 70.4702 199.679 66.8228 193.873 63.6869C188.756 60.9227 183.53 59.6254 178.34 59.8318C171.07 60.1163 160.839 62.7961 153.377 73.9475C150.527 78.2032 144.329 83.98 130.985 87.375V93.3324Z" fill="#E4E4E4"/>
<path d="M257.425 93.8087H131.215C131.111 93.8087 131.01 93.7671 130.936 93.693C130.862 93.6188 130.82 93.5183 130.82 93.4135V32.8796C130.82 32.7748 130.862 32.6743 130.936 32.6001C131.01 32.526 131.111 32.4844 131.215 32.4844C131.32 32.4844 131.421 32.526 131.495 32.6001C131.569 32.6743 131.61 32.7748 131.61 32.8796V93.0182H257.425C257.529 93.0182 257.63 93.0599 257.704 93.134C257.778 93.2081 257.82 93.3086 257.82 93.4135C257.82 93.5183 257.778 93.6188 257.704 93.693C257.63 93.7671 257.529 93.8087 257.425 93.8087Z" fill="#3F3D56"/>
<path d="M155.223 70.5312H154.448V93.2533H155.223V70.5312Z" fill="#3F3D56"/>
<path d="M178.415 59.918H177.641V93.2521H178.415V59.918Z" fill="#3F3D56"/>
<path d="M201.656 66.8945H200.881V93.2518H201.656V66.8945Z" fill="#3F3D56"/>
<path d="M224.896 54.1035H224.121V93.2518H224.896V54.1035Z" fill="#3F3D56"/>
<path d="M248.136 63.0195H247.361V93.2528H248.136V63.0195Z" fill="#3F3D56"/>
<path d="M178.076 62.825C179.385 62.825 180.446 61.7633 180.446 60.4535C180.446 59.1438 179.385 58.082 178.076 58.082C176.767 58.082 175.706 59.1438 175.706 60.4535C175.706 61.7633 176.767 62.825 178.076 62.825Z" fill="#B77DFF"/>
<path d="M224.556 56.6219C225.865 56.6219 226.926 55.5601 226.926 54.2504C226.926 52.9407 225.865 51.8789 224.556 51.8789C223.248 51.8789 222.187 52.9407 222.187 54.2504C222.187 55.5601 223.248 56.6219 224.556 56.6219Z" fill="#B77DFF"/>
<path d="M201.316 69.4129C202.625 69.4129 203.686 68.3512 203.686 67.0414C203.686 65.7317 202.625 64.6699 201.316 64.6699C200.007 64.6699 198.946 65.7317 198.946 67.0414C198.946 68.3512 200.007 69.4129 201.316 69.4129Z" fill="#B77DFF"/>
<path d="M154.836 72.9012C156.145 72.9012 157.206 71.8394 157.206 70.5297C157.206 69.22 156.145 68.1582 154.836 68.1582C153.527 68.1582 152.466 69.22 152.466 70.5297C152.466 71.8394 153.527 72.9012 154.836 72.9012Z" fill="#B77DFF"/>
<path d="M247.797 65.1493C249.105 65.1493 250.166 64.0875 250.166 62.7777C250.166 61.468 249.105 60.4062 247.797 60.4062C246.488 60.4062 245.427 61.468 245.427 62.7777C245.427 64.0875 246.488 65.1493 247.797 65.1493Z" fill="#B77DFF"/>
<path d="M53.032 215.304H57.7808L60.0398 196.975L53.0312 196.975L53.032 215.304Z" fill="#FFB6B6"/>
<path d="M51.8203 213.752L61.1722 213.752C62.7528 213.752 64.269 214.38 65.3867 215.499C66.5044 216.617 67.1323 218.134 67.1324 219.716V219.91L51.8206 219.91L51.8203 213.752Z" fill="#2F2E41"/>
<path d="M75.4978 215.304H80.2466L82.5056 196.975L75.4971 196.975L75.4978 215.304Z" fill="#FFB6B6"/>
<path d="M74.2861 213.752L83.6381 213.752C85.2186 213.752 86.7349 214.38 87.8525 215.499C88.9702 216.617 89.5981 218.134 89.5982 219.716V219.91L74.2864 219.91L74.2861 213.752Z" fill="#2F2E41"/>
<path d="M84.3595 131.509C84.7609 131.052 85.0572 130.512 85.2274 129.927C85.3977 129.343 85.4379 128.728 85.3451 128.126C85.2523 127.525 85.0289 126.951 84.6904 126.445C84.352 125.939 83.9069 125.514 83.3864 125.199L75.6584 88.0703L67.2393 91.3897L77.4829 126.842C77.012 127.752 76.891 128.803 77.1429 129.797C77.3948 130.79 78.0021 131.657 78.8497 132.232C79.6974 132.807 80.7264 133.051 81.7419 132.918C82.7574 132.785 83.6888 132.283 84.3595 131.509Z" fill="#FFB6B6"/>
<path d="M47.9392 124.359L44.4391 127.914C44.4391 127.914 40.6864 141.675 47.8674 158.647L52.6704 207.854L61.3119 208.505L63.8916 151.257L75.7945 170.26L73.7154 208.301L83.2677 208.082L87.5848 165.929L75.7945 121.941L47.9392 124.359Z" fill="#2F2E41"/>
<path d="M60.1777 129.148C54.9071 129.111 49.6433 128.763 44.4136 128.106L44.2031 128.078L49.4192 105.137L47.6232 75.6207L64.5838 75.0393C66.1192 74.9835 67.621 75.4973 68.801 76.482C69.9809 77.4666 70.7558 78.8527 70.9769 80.3741L74.4482 103.923L77.6592 124.816L77.6162 124.879C75.3086 128.265 67.5934 129.148 60.1777 129.148Z" fill="#B77DFF"/>
<path d="M63.04 79.9213L66.4861 75.5983C66.4861 75.5983 72.5274 71.464 74.4394 80.3232C76.3514 89.1823 79.9038 103.564 79.9038 103.564L68.0907 104.521L63.04 79.9213Z" fill="#B77DFF"/>
<path d="M30.3839 131.896C29.9825 131.438 29.6863 130.898 29.516 130.314C29.3457 129.729 29.3055 129.115 29.3983 128.513C29.4911 127.912 29.7145 127.338 30.053 126.832C30.3914 126.326 30.8365 125.901 31.357 125.585L39.085 88.457L47.5041 91.7764L37.2605 127.229C37.7314 128.139 37.8524 129.19 37.6005 130.184C37.3486 131.177 36.7413 132.043 35.8937 132.619C35.046 133.194 34.017 133.438 33.0015 133.305C31.986 133.172 31.0546 132.67 30.3839 131.896Z" fill="#FFB6B6"/>
<path d="M51.7036 80.31L48.2575 75.9869C48.2575 75.9869 42.2162 71.8527 40.3042 80.7118C38.3922 89.571 34.8398 103.953 34.8398 103.953L46.6529 104.91L51.7036 80.31Z" fill="#B77DFF"/>
<path d="M66.2263 70.7239H43.7606C43.2985 70.7234 42.8554 70.5394 42.5287 70.2124C42.2019 69.8855 42.0181 69.4421 42.0176 68.9797V59.2895C42.0176 55.8457 43.3847 52.543 45.8181 50.1079C48.2516 47.6727 51.552 46.3047 54.9934 46.3047C58.4348 46.3047 61.7353 47.6727 64.1688 50.1079C66.6022 52.543 67.9693 55.8457 67.9693 59.2895V68.9797C67.9688 69.4421 67.785 69.8855 67.4582 70.2124C67.1314 70.5394 66.6884 70.7234 66.2263 70.7239Z" fill="#2F2E41"/>
<path d="M57.4744 70.1396C62.7285 70.1396 66.9878 65.8774 66.9878 60.6196C66.9878 55.3619 62.7285 51.0996 57.4744 51.0996C52.2203 51.0996 47.9609 55.3619 47.9609 60.6196C47.9609 65.8774 52.2203 70.1396 57.4744 70.1396Z" fill="#FFB6B6"/>
<path d="M71.0389 60.2583H57.3017L57.1608 58.2847L56.4565 60.2583H54.3412L54.0621 56.3467L52.6661 60.2583H48.5732V60.0645C48.5763 57.3413 49.6587 54.7305 51.583 52.8049C53.5073 50.8792 56.1163 49.796 58.8376 49.793H60.7744C63.4958 49.796 66.1048 50.8792 68.0291 52.8048C69.9534 54.7305 71.0358 57.3413 71.0389 60.0645V60.2583Z" fill="#2F2E41"/>
<path d="M57.1897 72.5311C57.0863 72.531 56.9831 72.5219 56.8813 72.5039L46.8223 70.7278V54.0918H57.8953L57.6211 54.4116C53.8069 58.8631 56.6805 66.0811 58.7328 69.9874C58.8841 70.2735 58.9516 70.5966 58.9274 70.9194C58.9033 71.2421 58.7885 71.5515 58.5964 71.8119C58.4355 72.0346 58.2241 72.2159 57.9795 72.3409C57.735 72.4659 57.4643 72.5311 57.1897 72.5311Z" fill="#2F2E41"/>
<path d="M334.786 215.304H330.038L327.778 196.975L334.787 196.975L334.786 215.304Z" fill="#9E616A"/>
<path d="M335.997 219.91L320.686 219.91V219.716C320.686 218.134 321.314 216.617 322.431 215.499C323.549 214.38 325.065 213.752 326.645 213.752L335.998 213.752L335.997 219.91Z" fill="#2F2E41"/>
<path d="M317.743 215.304H312.995L310.735 196.975L317.744 196.975L317.743 215.304Z" fill="#9E616A"/>
<path d="M318.954 219.91L303.643 219.91V219.716C303.643 218.134 304.271 216.617 305.388 215.499C306.506 214.38 308.022 213.752 309.602 213.752L318.955 213.752L318.954 219.91Z" fill="#2F2E41"/>
<path d="M262.437 86.8673C262.816 87.3896 263.306 87.8223 263.87 88.1349C264.435 88.4474 265.061 88.6323 265.705 88.6765C266.349 88.7206 266.995 88.623 267.597 88.3904C268.199 88.1578 268.743 87.796 269.19 87.3304L278.586 91.0022L282.209 85.8324L268.866 80.8336C268.035 80.1337 266.976 79.7633 265.89 79.7926C264.804 79.822 263.766 80.2489 262.973 80.9927C262.181 81.7364 261.689 82.7452 261.59 83.828C261.491 84.9107 261.792 85.9921 262.437 86.8673Z" fill="#9E616A"/>
<path d="M317.683 118.191L305.312 122.23L309.444 209.905L318.992 210.141L323.879 148.312L324.988 209.897L336.794 210.548L341.146 118.191H317.683Z" fill="#2F2E41"/>
<path d="M309.336 66.5072L341.088 59.6035L344.619 86.9627L341.678 100.035L342.856 119.902C342.856 119.902 317.749 132.406 305.312 122.229C305.312 122.229 315.308 95.9529 309.514 83.6526L309.336 66.5072Z" fill="#3F3D56"/>
<path d="M314.835 70.3772L309.336 66.5074C309.336 66.5074 309.011 66.0572 304.428 71.418C299.846 76.7789 290.55 85.3063 290.55 85.3063L275.056 79.4922L272.233 89.9284L290.24 98.3255L315.733 81.2883L314.835 70.3772Z" fill="#3F3D56"/>
<path d="M342.862 130.157C343.445 129.881 343.961 129.481 344.373 128.984C344.785 128.487 345.084 127.905 345.247 127.281C345.41 126.656 345.435 126.003 345.318 125.368C345.202 124.733 344.948 124.131 344.574 123.604L349.93 115.05L345.529 110.525L338.136 122.712C337.293 123.399 336.732 124.371 336.559 125.444C336.385 126.518 336.611 127.617 337.194 128.535C337.776 129.453 338.675 130.125 339.72 130.424C340.764 130.723 341.882 130.628 342.862 130.157Z" fill="#9E616A"/>
<path d="M336.136 64.9945L341.088 59.6048C341.088 59.6048 346.606 57.6818 351.115 67.6186C355.623 77.5553 360.659 97.7108 360.659 97.7108L348.885 120.404L339.742 116.316L348.885 97.5506L339.21 83.6539L336.136 64.9945Z" fill="#3F3D56"/>
<path d="M327.738 57.3598C332.733 54.6276 334.568 48.3609 331.838 43.3627C329.107 38.3645 322.845 36.5277 317.85 39.2599C312.856 41.9921 311.02 48.2588 313.75 53.257C316.481 58.2552 322.743 60.092 327.738 57.3598Z" fill="#9E616A"/>
<path d="M332.488 40.0641L332.988 39.0578L330.474 37.8077C330.474 37.8077 327.7 33.2917 322.681 34.5608C317.662 35.8299 315.404 36.5895 315.404 36.5895L312.896 37.8522L314.155 39.1054L311.897 39.8649L313.406 40.615L311.65 41.6245L312.595 46.7998C312.595 46.7998 314.165 42.8745 317.182 44.3746C320.199 45.8746 325.717 43.5991 325.717 43.5991L330.512 52.8843C330.512 52.8843 331.501 49.6294 333.264 50.4973C333.264 50.4973 337.77 43.3174 332.488 40.0641Z" fill="#2F2E41"/>
<path d="M116.202 220H0.387339C0.28461 220 0.186089 219.959 0.113449 219.886C0.0408085 219.814 0 219.715 0 219.612C0 219.509 0.0408085 219.411 0.113449 219.338C0.186089 219.265 0.28461 219.225 0.387339 219.225H116.202C116.304 219.225 116.403 219.265 116.476 219.338C116.548 219.411 116.589 219.509 116.589 219.612C116.589 219.715 116.548 219.814 116.476 219.886C116.403 219.959 116.304 220 116.202 220Z" fill="#CACACA"/>
<path d="M360.612 220H271.912C271.809 220 271.711 219.959 271.638 219.886C271.565 219.814 271.524 219.715 271.524 219.612C271.524 219.509 271.565 219.411 271.638 219.338C271.711 219.265 271.809 219.225 271.912 219.225H360.612C360.715 219.225 360.814 219.265 360.886 219.338C360.959 219.411 361 219.509 361 219.612C361 219.715 360.959 219.814 360.886 219.886C360.814 219.959 360.715 220 360.612 220Z" fill="#CACACA"/>
</g>
<defs>
<clipPath id="clip0_78_2440">
<rect width="361" height="220" fill="white"/>
</clipPath>
</defs>
</svg>
