<svg width="25" height="24" viewBox="0 0 25 24" fill="none" xmlns="http://www.w3.org/2000/svg">
<mask id="mask0_91_911" style="mask-type:alpha" maskUnits="userSpaceOnUse" x="0" y="0" width="25" height="24">
<rect x="0.299805" width="24" height="24" fill="#D9D9D9"/>
</mask>
<g mask="url(#mask0_91_911)">
<path d="M12.2998 14.475L14.1998 15.625C14.3831 15.7417 14.5665 15.7375 14.7498 15.6125C14.9331 15.4875 14.9998 15.3167 14.9498 15.1L14.4498 12.925L16.1498 11.45C16.3165 11.3 16.3665 11.1208 16.2998 10.9125C16.2331 10.7042 16.0831 10.5917 15.8498 10.575L13.6248 10.4L12.7498 8.35C12.6665 8.15 12.5165 8.05 12.2998 8.05C12.0831 8.05 11.9331 8.15 11.8498 8.35L10.9748 10.4L8.7498 10.575C8.51647 10.5917 8.36647 10.7042 8.2998 10.9125C8.23314 11.1208 8.28314 11.3 8.4498 11.45L10.1498 12.925L9.6498 15.1C9.5998 15.3167 9.66647 15.4875 9.8498 15.6125C10.0331 15.7375 10.2165 15.7417 10.3998 15.625L12.2998 14.475ZM8.9498 20H6.2998C5.7498 20 5.27897 19.8042 4.8873 19.4125C4.49564 19.0208 4.2998 18.55 4.2998 18V15.35L2.3748 13.4C2.19147 13.2 2.0498 12.9792 1.9498 12.7375C1.8498 12.4958 1.7998 12.25 1.7998 12C1.7998 11.75 1.8498 11.5042 1.9498 11.2625C2.0498 11.0208 2.19147 10.8 2.3748 10.6L4.2998 8.65V6C4.2998 5.45 4.49564 4.97917 4.8873 4.5875C5.27897 4.19583 5.7498 4 6.2998 4H8.9498L10.8998 2.075C11.0998 1.89167 11.3206 1.75 11.5623 1.65C11.804 1.55 12.0498 1.5 12.2998 1.5C12.5498 1.5 12.7956 1.55 13.0373 1.65C13.279 1.75 13.4998 1.89167 13.6998 2.075L15.6498 4H18.2998C18.8498 4 19.3206 4.19583 19.7123 4.5875C20.104 4.97917 20.2998 5.45 20.2998 6V8.65L22.2248 10.6C22.4081 10.8 22.5498 11.0208 22.6498 11.2625C22.7498 11.5042 22.7998 11.75 22.7998 12C22.7998 12.25 22.7498 12.4958 22.6498 12.7375C22.5498 12.9792 22.4081 13.2 22.2248 13.4L20.2998 15.35V18C20.2998 18.55 20.104 19.0208 19.7123 19.4125C19.3206 19.8042 18.8498 20 18.2998 20H15.6498L13.6998 21.925C13.4998 22.1083 13.279 22.25 13.0373 22.35C12.7956 22.45 12.5498 22.5 12.2998 22.5C12.0498 22.5 11.804 22.45 11.5623 22.35C11.3206 22.25 11.0998 22.1083 10.8998 21.925L8.9498 20ZM9.7998 18L12.2998 20.5L14.7998 18H18.2998V14.5L20.7998 12L18.2998 9.5V6H14.7998L12.2998 3.5L9.7998 6H6.2998V9.5L3.7998 12L6.2998 14.5V18H9.7998Z" fill="#9D9D9D"/>
</g>
</svg>
