<svg width="25" height="24" viewBox="0 0 25 24" fill="none" xmlns="http://www.w3.org/2000/svg">
<mask id="mask0_91_883" style="mask-type:alpha" maskUnits="userSpaceOnUse" x="0" y="0" width="25" height="24">
<rect x="0.899414" width="24" height="24" fill="#D9D9D9"/>
</mask>
<g mask="url(#mask0_91_883)">
<path d="M6.74941 17.1C7.59941 16.45 8.54941 15.9375 9.59941 15.5625C10.6494 15.1875 11.7494 15 12.8994 15C14.0494 15 15.1494 15.1875 16.1994 15.5625C17.2494 15.9375 18.1994 16.45 19.0494 17.1C19.6327 16.4167 20.0869 15.6417 20.4119 14.775C20.7369 13.9083 20.8994 12.9833 20.8994 12C20.8994 9.78333 20.1202 7.89583 18.5619 6.3375C17.0036 4.77917 15.1161 4 12.8994 4C10.6827 4 8.79525 4.77917 7.23691 6.3375C5.67858 7.89583 4.89941 9.78333 4.89941 12C4.89941 12.9833 5.06191 13.9083 5.38691 14.775C5.71191 15.6417 6.16608 16.4167 6.74941 17.1ZM12.8994 13C11.9161 13 11.0869 12.6625 10.4119 11.9875C9.73691 11.3125 9.39941 10.4833 9.39941 9.5C9.39941 8.51667 9.73691 7.6875 10.4119 7.0125C11.0869 6.3375 11.9161 6 12.8994 6C13.8827 6 14.7119 6.3375 15.3869 7.0125C16.0619 7.6875 16.3994 8.51667 16.3994 9.5C16.3994 10.4833 16.0619 11.3125 15.3869 11.9875C14.7119 12.6625 13.8827 13 12.8994 13ZM12.8994 22C11.5161 22 10.2161 21.7375 8.99941 21.2125C7.78275 20.6875 6.72441 19.975 5.82441 19.075C4.92441 18.175 4.21191 17.1167 3.68691 15.9C3.16191 14.6833 2.89941 13.3833 2.89941 12C2.89941 10.6167 3.16191 9.31667 3.68691 8.1C4.21191 6.88333 4.92441 5.825 5.82441 4.925C6.72441 4.025 7.78275 3.3125 8.99941 2.7875C10.2161 2.2625 11.5161 2 12.8994 2C14.2827 2 15.5827 2.2625 16.7994 2.7875C18.0161 3.3125 19.0744 4.025 19.9744 4.925C20.8744 5.825 21.5869 6.88333 22.1119 8.1C22.6369 9.31667 22.8994 10.6167 22.8994 12C22.8994 13.3833 22.6369 14.6833 22.1119 15.9C21.5869 17.1167 20.8744 18.175 19.9744 19.075C19.0744 19.975 18.0161 20.6875 16.7994 21.2125C15.5827 21.7375 14.2827 22 12.8994 22ZM12.8994 20C13.7827 20 14.6161 19.8708 15.3994 19.6125C16.1827 19.3542 16.8994 18.9833 17.5494 18.5C16.8994 18.0167 16.1827 17.6458 15.3994 17.3875C14.6161 17.1292 13.7827 17 12.8994 17C12.0161 17 11.1827 17.1292 10.3994 17.3875C9.61608 17.6458 8.89941 18.0167 8.24941 18.5C8.89941 18.9833 9.61608 19.3542 10.3994 19.6125C11.1827 19.8708 12.0161 20 12.8994 20ZM12.8994 11C13.3327 11 13.6911 10.8583 13.9744 10.575C14.2577 10.2917 14.3994 9.93333 14.3994 9.5C14.3994 9.06667 14.2577 8.70833 13.9744 8.425C13.6911 8.14167 13.3327 8 12.8994 8C12.4661 8 12.1077 8.14167 11.8244 8.425C11.5411 8.70833 11.3994 9.06667 11.3994 9.5C11.3994 9.93333 11.5411 10.2917 11.8244 10.575C12.1077 10.8583 12.4661 11 12.8994 11Z" fill="#B77DFF"/>
</g>
</svg>
